<?xml version="1.0" encoding="UTF-8"?>
<svg width="752pt" height="752pt" version="1.1" viewBox="0 0 752 752" xmlns="http://www.w3.org/2000/svg">
 <defs>
  <clipPath id="b">
   <path d="m171 363h410v249.79h-410z"/>
  </clipPath>
  <clipPath id="a">
   <path d="m339 139.21h74v74.789h-74z"/>
  </clipPath>
 </defs>
 <g clip-path="url(#b)">
  <path d="m553.24 363.98c-13.516 0-27.457 9.2695-37.277 18.727-0.16797 0.16016-47.395 39.328-63.445 55.16-2.9141 2.8711-8.5859 5.1992-12.672 5.1992-5.0469 5.6562-10.84 10.641-17.215 14.801h17.215c7.9258 0 17.406-3.8867 23.062-9.4609 9.0703-8.9414 31.508-28.449 61.551-53.512 1.1211-0.93359 1.707-1.4688 1.7695-1.5234 9.3438-9 19.695-14.59 27.012-14.59 3.6875 0 6.668 1.3828 9.6484 4.4844 8.5742 8.9219-6.6641 25.645-10.062 29.156l-69.043 68.5-0.33984 0.33984-0.31641 0.36328c-4.8711 5.5039-29.285 34.043-31.645 55.473l-0.089844 0.80469v43.445c0 9.1797-7.4688 16.648-16.648 16.648h-113.54c-9.1797 0-16.648-7.4688-16.648-16.648v-43.449l-0.089843-0.8125c-2.3984-21.668-28.477-50.293-33.68-55.809l-0.25781-0.27344-0.26953-0.26172c-62.363-59.734-69.918-66.965-70.902-67.906-8.1016-7.7578-13.066-16.289-12.965-22.266 0.03125-1.9102 0.55078-4.8711 4.6484-8.5352 2.2656-2.0234 4.4648-2.9258 7.1367-2.9258 6.7266 0 16.535 5.5742 26.234 14.91l0.26953 0.25781 0.28516 0.25 63.121 54.859c5.7461 4.9922 15.074 8.4766 22.691 8.4766h18.605c-6.375-4.1602-12.164-9.1406-17.215-14.801h-1.3906c-4.0859 0-9.8984-2.1719-12.984-4.8516l-63.121-54.855c-9.6367-9.2695-23.273-19.043-36.496-19.043-5.875 0-11.672 1.9336-17 6.6953-18.648 16.66-6.8438 38.352 7.9453 52.516 0.30859 0.28516 70.898 67.91 70.898 67.91s27.762 29.441 29.738 47.285l-0.003906 42.629c0 17.367 14.078 31.449 31.449 31.449h113.54c17.367 0 31.449-14.082 31.449-31.449v-42.633c1.9648-17.844 28.016-47.285 28.016-47.285l69.141-68.605c12.625-12.984 25.285-34.125 10.211-49.812-6.2148-6.4609-13.211-9.0312-20.32-9.0312z"/>
 </g>
 <path d="m376 456.94c39.066 0 70.762-31.688 70.762-70.754 0-39.082-31.695-70.766-70.762-70.766-39.074 0-70.762 31.684-70.762 70.766-0.003907 39.066 31.688 70.754 70.762 70.754zm0-126.72c30.859 0 55.961 25.109 55.961 55.969 0 30.852-25.105 55.953-55.961 55.953-30.859 0-55.965-25.102-55.965-55.953 0-30.859 25.105-55.969 55.965-55.969z"/>
 <path d="m205.81 335.3c20.434 0 37-16.547 37-37 0-20.449-16.566-37-37-37s-37 16.547-37 37c0 20.449 16.566 37 37 37zm0-59.199c12.242 0 22.199 9.957 22.199 22.199 0 12.242-9.957 22.199-22.199 22.199-12.242 0-22.199-9.957-22.199-22.199 0-12.242 9.957-22.199 22.199-22.199z"/>
 <g clip-path="url(#a)">
  <path d="m376 213.21c20.438 0 37-16.547 37-37 0-20.449-16.562-36.996-37-36.996-20.434 0-37 16.547-37 37 0.003906 20.449 16.566 36.996 37 36.996zm0-59.195c12.242 0 22.199 9.957 22.199 22.199 0 12.242-9.957 22.199-22.199 22.199s-22.199-9.957-22.199-22.199c0-12.242 9.9609-22.199 22.199-22.199z"/>
 </g>
 <path d="m272.43 253.91c6.7109 0 13.5-1.8242 19.609-5.6523 17.312-10.844 22.562-33.656 11.711-50.984-7.0273-11.215-19.062-17.359-31.375-17.359-6.7109 0-13.504 1.8242-19.609 5.6523-17.312 10.844-22.566 33.656-11.711 50.984 7.0234 11.215 19.062 17.359 31.375 17.359zm-21.66-41.969c1.3281-5.7734 4.8242-10.688 9.8516-13.836 3.543-2.2188 7.6094-3.3945 11.758-3.3945 7.7031 0 14.742 3.8945 18.828 10.418 6.4961 10.375 3.3438 24.094-7.0273 30.59-3.543 2.2188-7.6055 3.3906-11.75 3.3906-7.7031 0-14.746-3.8945-18.832-10.418-3.1523-5.0273-4.1523-10.977-2.8281-16.75z"/>
 <path d="m459.95 244.55c6.1094 3.832 12.902 5.6562 19.617 5.6562 12.309 0 24.34-6.1406 31.371-17.355 10.859-17.324 5.6094-40.137-11.695-50.984-6.1094-3.832-12.906-5.6562-19.621-5.6562-12.309 0-24.34 6.1406-31.371 17.355-10.859 17.324-5.6133 40.137 11.699 50.984zm0.83984-43.125c4.0859-6.5234 11.125-10.414 18.832-10.414 4.1445 0 8.2109 1.1758 11.758 3.3945 5.0234 3.1484 8.5195 8.0625 9.8477 13.836 1.3242 5.7734 0.32031 11.723-2.832 16.75-4.0898 6.5234-11.129 10.414-18.828 10.414-4.1445 0-8.2109-1.1758-11.758-3.3945-10.367-6.4961-13.516-20.219-7.0195-30.586z"/>
 <path d="m546.2 335.3c20.438 0 37-16.547 37-37 0-20.449-16.562-37-37-37-20.434 0-37 16.547-37 37 0 20.449 16.566 37 37 37zm0-59.199c12.242 0 22.199 9.957 22.199 22.199 0 12.242-9.957 22.199-22.199 22.199-12.242 0-22.199-9.957-22.199-22.199 0-12.242 9.957-22.199 22.199-22.199z"/>
</svg>
