<?xml version="1.0" encoding="UTF-8"?>
<svg width="752pt" height="752pt" version="1.1" viewBox="0 0 752 752" xmlns="http://www.w3.org/2000/svg">
 <g>
  <path d="m280.67 350.8h8.0117c14.223 0 25.797-11.344 25.797-25.285 0-13.941-11.574-25.285-25.793-25.285h-8.0156c-14.223 0-25.797 11.344-25.797 25.285 0.003906 13.945 11.57 25.285 25.797 25.285zm0-31.625h8.0117c3.7773 0 6.8516 2.8477 6.8516 6.3398 0 3.4961-3.0742 6.3398-6.8516 6.3398l-8.0117 0.003907c-3.7773 0-6.8516-2.8477-6.8516-6.3398 0-3.4961 3.0742-6.3438 6.8516-6.3438z"/>
  <path d="m366.9 377.03h106.55c13.055 0 23.68-10.621 23.68-23.68v-12.863c0-22.195-18.059-40.254-40.254-40.254h-89.98c-13.055 0-23.68 10.621-23.68 23.68v29.441c0 13.055 10.625 23.676 23.68 23.676zm-4.7344-53.121c0-2.5664 2.168-4.7344 4.7344-4.7344h89.98c11.75 0 21.312 9.5625 21.312 21.312v12.867c0 2.5664-2.168 4.7344-4.7344 4.7344h-106.55c-2.5664 0-4.7344-2.168-4.7344-4.7344z"/>
  <path d="m264.34 377.03h63.09c5.2266 0 9.4727-4.2422 9.4727-9.4727v-36c0-5.2266-4.2422-9.4727-9.4727-9.4727-5.2266 0-9.4727 4.2422-9.4727 9.4727v26.531h-53.617c-5.2266 0-9.4727 4.2422-9.4727 9.4727 0 5.2266 4.2461 9.4688 9.4727 9.4688z"/>
  <path d="m520.45 300.23c-5.2266 0-9.4727 4.2422-9.4727 9.4727v78.121h-269.94v-78.121c0-5.2266-4.2422-9.4727-9.4727-9.4727-5.2266 0-9.4727 4.2422-9.4727 9.4727v132.6c0 5.2266 4.2422 9.4727 9.4727 9.4727 5.2266 0 9.4727-4.2422 9.4727-9.4727v-35.539h269.94v35.543c0 5.2266 4.2422 9.4727 9.4727 9.4727 5.2266 0 9.4727-4.2422 9.4727-9.4727l-0.003907-132.61c0-5.2266-4.2422-9.4727-9.4688-9.4727z"/>
 </g>
</svg>
