<?xml version="1.0" encoding="UTF-8"?>
<svg width="752pt" height="752pt" version="1.1" viewBox="0 0 752 752" xmlns="http://www.w3.org/2000/svg">
 <path d="m585.32 316.41c-7.1758-16.547-26.402-24.129-42.922-16.957l-18.355 7.5312-65.52 28.906-178.52-82.699c-3.5234-2.2734-7.7109-3.5469-12.203-3.5469-12.539 0-22.676 10.137-22.676 22.672 0 5.4609 1.9414 10.492 5.1602 14.398l96.055 98.762-61.438 27.145-85.281-45.961c-3.3203-1.7109-7.125-2.6836-11.133-2.6836-13.531 0-24.512 10.977-24.512 24.512 0 4.543 1.2773 8.7852 3.418 12.434l86.199 97.41 312.57-137.98 2.1953-1.0195c16.555-7.1719 24.109-26.402 16.961-42.922zm-199.78 97.461c-6.8828 0-12.465-5.582-12.465-12.465 0-6.8828 5.582-12.465 12.465-12.465 6.8828 0 12.465 5.582 12.465 12.465 0 6.8867-5.582 12.465-12.465 12.465zm38.863-16.863c-6.8828 0-12.465-5.582-12.465-12.465s5.582-12.465 12.465-12.465c6.8828 0 12.465 5.582 12.465 12.465s-5.582 12.465-12.465 12.465zm39.594-17.598c-6.8828 0-12.465-5.582-12.465-12.465 0-6.8828 5.582-12.465 12.465-12.465 6.8828 0 12.465 5.582 12.465 12.465 0 6.8828-5.582 12.465-12.465 12.465z"/>
</svg>
