<?xml version="1.0" encoding="UTF-8"?>
<svg width="752pt" height="752pt" version="1.1" viewBox="0 0 752 752" xmlns="http://www.w3.org/2000/svg">
 <path d="m511.56 162.89c-32.883 1.8867-65.168 27.34-86.871 64.672-19.84 34.129-25.066 70.637-14.801 99.008-0.28906 0.50781-0.39453 0.74609-0.73828 1.332-2.3828 4.082-5.9922 9.9375-10.359 17.168-5.9883 9.9141-14.703 24.203-22.941 37.738-5.2891-8.6797-11.867-19.348-16.277-26.637-6.2617-10.352-11.395-18.969-14.949-25.012-1.082-1.8477-1.6133-2.9805-2.3672-4.293 3.5312-9.7695 5.582-20.285 5.3281-31.672-0.070313-2.5742-0.83594-5.0781-2.2188-7.25l-70.445-112.03c-2.8047-4.5039-7.8828-7.0742-13.172-6.6602-5.0195 0.34375-9.4844 3.3203-11.738 7.8203-2.25 4.5039-1.9492 9.8594 0.78516 14.082l58.164 92.199-12.727 7.1055-56.238-92.645c-2.7266-4.6172-7.8203-7.3086-13.172-6.957-5 0.32812-9.4609 3.2617-11.738 7.7227-2.2734 4.4648-2.0352 9.7969 0.63672 14.035l55.797 91.754-12.137 6.957-50.91-93.68c-1.6445-3.582-4.707-6.3203-8.4492-7.5625-3.7422-1.2383-7.832-0.86719-11.289 1.0273s-5.9727 5.1406-6.9453 8.9609c-0.97266 3.8203-0.3125 7.875 1.8203 11.188l61.566 113.66c1.1992 2.2578 2.9922 4.1523 5.1797 5.4766 10.289 6.0352 21.07 8.8633 31.523 10.211 0.72266 1.2461 1.2539 2.1523 2.2188 3.8477 3.4844 6.125 8.3164 14.977 14.207 25.605 9.5234 17.18 22.172 40.43 34.629 63.191l-54.312 88.203c-1.9844 3.2695-2.5703 7.1992-1.625 10.902 0.94922 3.7031 3.3477 6.8711 6.6562 8.7812l45.582 26.047c3.3086 1.9023 7.2422 2.3945 10.918 1.3633 3.6758-1.0273 6.7812-3.4922 8.6172-6.8359l27.23-49.875c9.332 17.094 27.23 49.875 27.23 49.875 1.8398 3.3438 4.9453 5.8086 8.6211 6.8359 3.6719 1.0312 7.6094 0.53906 10.914-1.3633l45.438-26.047c3.3516-1.9102 5.7812-5.1055 6.7305-8.8438 0.94531-3.7422 0.33594-7.707-1.6992-10.984 0 0-33.805-54.652-67.484-109.52-4.8125-7.8359-8.4688-13.926-13.172-21.609 11.531-18.859 22.594-37.004 30.633-50.316 4.4023-7.2891 7.9805-13.285 10.508-17.613 1.2656-2.1641 2.1953-3.9219 2.9609-5.3281 0.38281-0.69922 0.66406-1.2852 1.0352-2.0703 0.1875-0.39453 0.41797-0.86719 0.73828-1.7773 0.16406-0.45312 0.35938-0.98828 0.59375-2.2188 0.11719-0.61719 0.30078-1.3438 0.29688-2.6641-0.003906-0.66016-0.10938-1.4883-0.29688-2.5156s-1.1836-3.8438-1.1836-3.8477c-8.0352-16.18-6.4805-49.316 11.395-80.066 18.105-31.145 45.852-49.438 63.785-50.465 1.0977-0.0625 2.3516-0.0625 3.5547 0 4.0859 0.21484 7.5 1.1523 10.652 2.9609 8.4023 4.8164 14.074 15.574 14.504 32.262 0.42969 16.688-4.9883 38.02-16.871 58.457-18.18 31.277-45.59 47.773-64.082 48.395-4.9922 0.14062-9.543 2.8945-11.984 7.25l-31.672 56.832c-1.8477 3.2969-2.3047 7.1914-1.2773 10.828 1.0234 3.6367 3.4531 6.7148 6.75 8.5586 3.3008 1.8477 7.1953 2.3047 10.828 1.2773 3.6367-1.0273 6.7188-3.457 8.5625-6.7539l28.562-51.352c29.633-4.6523 58.867-26.402 78.879-60.828 14.25-24.512 21.316-50.242 20.719-73.402-0.59375-23.164-9.4531-45.051-28.711-56.09-7.2148-4.1406-15.297-6.3867-23.383-6.8086-2.0938-0.10938-4.2188-0.13281-6.5117 0zm-193.87 148.29c-0.79688 4.1094-2.0273 7.7812-3.5508 10.805-0.003906 0.007813-1.5469 5.7578-1.4805 7.1016s0.16016 2.0938 0.29688 2.6641c0.27344 1.1484 0.57422 1.6562 0.73828 2.0742 0.32813 0.83594 0.52734 1.1992 0.74219 1.625 0.42188 0.85938 0.80469 1.5664 1.332 2.5195 1.0547 1.9023 2.4531 4.418 4.2891 7.5469 3.6758 6.25 8.9531 14.906 15.246 25.305 12.582 20.805 29.465 48.465 46.32 75.922 29.848 48.625 53.32 86.469 59.789 96.938l-20.273 11.691c-5.8008-10.676-27.309-50.48-54.906-100.93-15.543-28.41-31.234-56.793-43.066-78.141-5.918-10.676-10.77-19.594-14.355-25.898-1.793-3.1523-3.3398-5.5586-4.4414-7.3984-0.55078-0.92188-0.98438-1.7656-1.4805-2.5156-0.24609-0.37891-0.38281-0.67969-0.88672-1.332-0.25-0.32812-0.53516-0.6875-1.332-1.4805-0.39844-0.39844-0.93359-0.84766-2.0703-1.6289-1.1367-0.77734-7.8398-2.5156-7.8438-2.5156-3.207-0.066406-6.6289-0.58203-10.066-1.4805zm30.93 170.64c5.4688 10 6.0547 11.035 11.102 20.277l-28.859 53.277-20.273-11.543z"/>
</svg>
