<?xml version="1.0" encoding="UTF-8"?>
<svg width="752pt" height="752pt" version="1.1" viewBox="0 0 752 752" xmlns="http://www.w3.org/2000/svg">
 <path d="m365.41 453.62c-1.2266 0-2.4531-0.31641-3.5508-0.95313-2.1992-1.2695-3.5508-3.6133-3.5508-6.1523v-38.578h-110.3c-3.9258 0-7.1055-3.1836-7.1055-7.1055v-71.039c0-3.9219 3.1758-7.1055 7.1055-7.1055h110.3v-38.578c0-2.5391 1.3555-4.8828 3.5508-6.1523 2.1992-1.2695 4.9062-1.2695 7.1055 0l140.63 81.207c2.1992 1.2695 3.5508 3.6133 3.5508 6.1523s-1.3555 4.8828-3.5508 6.1523l-140.63 81.199c-1.0977 0.62891-2.332 0.95313-3.5508 0.95313zm-110.3-59.891h110.3c3.9258 0 7.1055 3.1836 7.1055 7.1055v33.375l119.32-68.895-119.32-68.891v33.375c0 3.9219-3.1758 7.1055-7.1055 7.1055h-110.3z"/>
</svg>
